<?xml version="1.0" standalone="no"?>
<!DOCTYPE svg PUBLIC "-//W3C//DTD SVG 20010904//EN"
 "http://www.w3.org/TR/2001/REC-SVG-20010904/DTD/svg10.dtd">
<svg version="1.0" xmlns="http://www.w3.org/2000/svg"
 width="512.000000pt" height="512.000000pt" viewBox="0 0 512.000000 512.000000"
 preserveAspectRatio="xMidYMid meet">
<metadata>
Created by potrace 1.11, written by Peter Selinger 2001-2013
</metadata>
<g transform="translate(0.000000,512.000000) scale(0.100000,-0.100000)"
fill="#000000" stroke="none">
<path d="M513 5110 c-65 -13 -173 -60 -233 -100 -91 -62 -186 -174 -222 -265
-9 -22 -25 -60 -35 -85 -17 -43 -18 -131 -20 -2070 -3 -2253 -8 -2083 66
-2235 73 -148 206 -265 366 -322 l80 -28 2040 0 2040 0 73 23 c165 52 307 173
382 326 75 153 70 -18 67 2236 l-2 2025 -22 58 c-78 204 -208 338 -403 413
l-75 29 -2030 1 c-1117 1 -2049 -2 -2072 -6z"/>
</g>
</svg>
